<svg width="920" height="520" viewBox="0 0 920 520" fill="none" xmlns="http://www.w3.org/2000/svg" role="img" aria-labelledby="title desc">
  <title id="title">PatchPilot TUI showcase</title>
  <desc id="desc">A stylized terminal interface for the PatchPilot local coding agent.</desc>
  <rect width="920" height="520" rx="28" fill="#0B1020"/>
  <rect x="32" y="32" width="856" height="456" rx="18" fill="#111827" stroke="#334155"/>
  <rect x="32" y="32" width="856" height="48" rx="18" fill="#172033"/>
  <circle cx="60" cy="56" r="7" fill="#EF4444"/>
  <circle cx="84" cy="56" r="7" fill="#F59E0B"/>
  <circle cx="108" cy="56" r="7" fill="#22C55E"/>
  <text x="138" y="62" fill="#E5E7EB" font-family="Consolas, Menlo, monospace" font-size="18" font-weight="700">PatchPilot</text>
  <rect x="704" y="45" width="146" height="24" rx="12" fill="#0F766E"/>
  <text x="724" y="62" fill="#CCFBF1" font-family="Consolas, Menlo, monospace" font-size="13">qwen2.5-coder</text>

  <rect x="56" y="104" width="228" height="338" rx="12" fill="#0F172A" stroke="#334155"/>
  <text x="76" y="134" fill="#38BDF8" font-family="Consolas, Menlo, monospace" font-size="14" font-weight="700">Workspace</text>
  <text x="76" y="166" fill="#CBD5E1" font-family="Consolas, Menlo, monospace" font-size="13">src/core/agent.ts</text>
  <text x="76" y="194" fill="#CBD5E1" font-family="Consolas, Menlo, monospace" font-size="13">src/core/tools.ts</text>
  <text x="76" y="222" fill="#CBD5E1" font-family="Consolas, Menlo, monospace" font-size="13">src/tui/App.tsx</text>
  <text x="76" y="250" fill="#94A3B8" font-family="Consolas, Menlo, monospace" font-size="13">tests/parser.test.ts</text>
  <rect x="76" y="290" width="168" height="30" rx="8" fill="#1E293B"/>
  <text x="94" y="311" fill="#A7F3D0" font-family="Consolas, Menlo, monospace" font-size="13">write: disabled</text>
  <rect x="76" y="332" width="168" height="30" rx="8" fill="#1E293B"/>
  <text x="94" y="353" fill="#FDE68A" font-family="Consolas, Menlo, monospace" font-size="13">shell: ask first</text>

  <rect x="308" y="104" width="556" height="338" rx="12" fill="#020617" stroke="#334155"/>
  <text x="332" y="136" fill="#F8FAFC" font-family="Consolas, Menlo, monospace" font-size="15" font-weight="700">Agent transcript</text>
  <text x="332" y="174" fill="#94A3B8" font-family="Consolas, Menlo, monospace" font-size="13">user</text>
  <text x="390" y="174" fill="#E5E7EB" font-family="Consolas, Menlo, monospace" font-size="13">add parser tests and explain the diff</text>
  <text x="332" y="216" fill="#38BDF8" font-family="Consolas, Menlo, monospace" font-size="13">pilot</text>
  <text x="390" y="216" fill="#CBD5E1" font-family="Consolas, Menlo, monospace" font-size="13">reading parser and current tests...</text>
  <rect x="332" y="244" width="492" height="42" rx="10" fill="#111827"/>
  <text x="354" y="270" fill="#A7F3D0" font-family="Consolas, Menlo, monospace" font-size="13">tool read_file src/core/json.ts</text>
  <rect x="332" y="302" width="492" height="42" rx="10" fill="#111827"/>
  <text x="354" y="328" fill="#FDE68A" font-family="Consolas, Menlo, monospace" font-size="13">tool write_file denied: run with --apply</text>
  <rect x="332" y="364" width="492" height="42" rx="10" fill="#111827"/>
  <text x="354" y="390" fill="#C4B5FD" font-family="Consolas, Menlo, monospace" font-size="13">final review the proposed patch before commit</text>
  <rect x="56" y="456" width="808" height="1" fill="#334155"/>
  <text x="56" y="476" fill="#64748B" font-family="Consolas, Menlo, monospace" font-size="12">local model, visible tools, explicit permissions</text>
</svg>
